<svg xmlns="http://www.w3.org/2000/svg" width="64" height="64" viewBox="0 0 64 64" fill="none">
  <rect width="64" height="64" rx="8" fill="#FDF2F8"/>
  <path d="M32 16C38.6274 16 44 21.3726 44 28C44 34.6274 38.6274 40 32 40C25.3726 40 20 34.6274 20 28C20 21.3726 25.3726 16 32 16Z" stroke="#F472B6" stroke-width="2"/>
  <path d="M32 20C36.4183 20 40 23.5817 40 28C40 32.4183 36.4183 36 32 36C27.5817 36 24 32.4183 24 28C24 23.5817 27.5817 20 32 20Z" stroke="#F472B6" stroke-width="2"/>
  <path d="M32 24C34.2091 24 36 25.7909 36 28C36 30.2091 34.2091 32 32 32C29.7909 32 28 30.2091 28 28C28 25.7909 29.7909 24 32 24Z" fill="#F472B6"/>
  <path d="M32 44C38.6274 44 44 46.2386 44 49C44 51.7614 38.6274 54 32 54C25.3726 54 20 51.7614 20 49C20 46.2386 25.3726 44 32 44Z" fill="#F472B6" fill-opacity="0.3"/>
  <path d="M24 28C24 28 27 36 32 36C37 36 40 28 40 28" stroke="#F472B6" stroke-width="2"/>
</svg> 